HIERARCHY
ROOT Hips
{
	OFFSET 0.000000 0.000000 0.000000
	CHANNELS 6 Xposition Yposition Zposition Zrotation Yrotation Xrotation 
	JOINT LeftUpLeg_virtual
	{
		OFFSET 0.000000 0.000000 0.000000
		CHANNELS 3 Zrotation Yrotation Xrotation
		JOINT LeftUpLeg
		{
			OFFSET 8.479694 -4.795517 -0.379053
			CHANNELS 3 Zrotation Yrotation Xrotation
			JOINT LeftLeg
			{
				OFFSET 0.485052 -32.551468 0.112863
				CHANNELS 3 Zrotation Yrotation Xrotation
				JOINT LeftFoot
				{
					OFFSET 0.438033 -32.635670 -3.012641
					CHANNELS 3 Zrotation Yrotation Xrotation
					JOINT LeftToeBase
					{
						OFFSET 0.970169 -13.225353 11.864223
						CHANNELS 3 Zrotation Yrotation Xrotation
						End Site
						{
							OFFSET 0.000000 0.000000 0.000000
						}
					}
				}
			}
		}
	}
	JOINT RightUpLeg_virtual
	{
		OFFSET 0.000000 0.000000 0.000000
		CHANNELS 3 Zrotation Yrotation Xrotation
		JOINT RightUpLeg
		{
			OFFSET -8.479694 -4.795517 -0.379053
			CHANNELS 3 Zrotation Yrotation Xrotation
			JOINT RightLeg
			{
				OFFSET -0.484100 -32.551483 0.112903
				CHANNELS 3 Zrotation Yrotation Xrotation
				JOINT RightFoot
				{
					OFFSET -0.438985 -32.635651 -3.012681
					CHANNELS 3 Zrotation Yrotation Xrotation
					JOINT RightToeBase
					{
						OFFSET -0.970169 -13.225354 11.864223
						CHANNELS 3 Zrotation Yrotation Xrotation
						End Site
						{
							OFFSET 0.000000 0.000000 0.000000
						}
					}
				}
			}
		}
	}
	JOINT Spine_virtual
	{
		OFFSET 0.000000 0.000000 0.000000
		CHANNELS 3 Zrotation Yrotation Xrotation
		JOINT Spine
		{
			OFFSET 0.000000 7.722015 1.166203
			CHANNELS 3 Zrotation Yrotation Xrotation
			JOINT Spine1
			{
				OFFSET 0.000000 12.024086 0.248766
				CHANNELS 3 Zrotation Yrotation Xrotation
				JOINT Spine2
				{
					OFFSET -0.000000 11.503036 -0.491240
					CHANNELS 3 Zrotation Yrotation Xrotation
					JOINT Neck_virtual
					{
						OFFSET 0.000000 0.000000 0.000000
						CHANNELS 3 Zrotation Yrotation Xrotation
						JOINT Neck
						{
							OFFSET 0.000000 18.430687 -3.123054
							CHANNELS 3 Zrotation Yrotation Xrotation
							JOINT Head
							{
								OFFSET -0.000000 9.051071 1.034021
								CHANNELS 3 Zrotation Yrotation Xrotation
								End Site
								{
									OFFSET 0.000000 0.000000 0.000000
								}
							}
						}
					}
					JOINT LeftShoulder_virtual
					{
						OFFSET 0.000000 0.000000 0.000000
						CHANNELS 3 Zrotation Yrotation Xrotation
						JOINT LeftShoulder
						{
							OFFSET 6.197824 13.665230 -4.064723
							CHANNELS 3 Zrotation Yrotation Xrotation
							JOINT LeftArm
							{
								OFFSET 7.778132 -0.187073 -1.709282
								CHANNELS 3 Zrotation Yrotation Xrotation
								JOINT LeftForeArm
								{
									OFFSET 21.954697 0.000000 -2.041093
									CHANNELS 3 Zrotation Yrotation Xrotation
									JOINT LeftHand
									{
										OFFSET 22.992908 0.000000 -0.870901
										CHANNELS 3 Zrotation Yrotation Xrotation
										End Site
										{
											OFFSET 0.000000 0.000000 0.000000
										}
									}
								}
							}
						}
					}
					JOINT RightShoulder_virtual
					{
						OFFSET 0.000000 0.000000 0.000000
						CHANNELS 3 Zrotation Yrotation Xrotation
						JOINT RightShoulder
						{
							OFFSET -6.197824 13.665230 -4.064723
							CHANNELS 3 Zrotation Yrotation Xrotation
							JOINT RightArm
							{
								OFFSET -7.778132 -0.187073 -1.709282
								CHANNELS 3 Zrotation Yrotation Xrotation
								JOINT RightForeArm
								{
									OFFSET -21.954697 0.000000 -2.041093
									CHANNELS 3 Zrotation Yrotation Xrotation
									JOINT RightHand
									{
										OFFSET -22.992908 0.000000 -0.870901
										CHANNELS 3 Zrotation Yrotation Xrotation
										End Site
										{
											OFFSET 0.000000 0.000000 0.000000
										}
									}
								}
							}
						}
					}
				}
			}
		}
	}
}
MOTION
Frames: 10
Frame Time: 0.033333
-23.783302 78.808334 7.046251 178.800651 4.643819 -178.386018 -5.934610 -3.163239 33.668946 -0.871192 1.010785 -71.800055 2.414103 -1.414816 52.488976 -7.134191 -0.243826 -7.106260 0.000000 0.000000 0.000000 2.628155 -10.017554 32.037098 -11.929847 -11.572372 -68.945323 -0.959535 6.148739 56.643264 9.651728 3.042495 0.558732 0.000000 0.000000 0.000000 4.581368 -7.645037 57.768265 -6.714515 -0.287345 26.080767 0.905783 -2.486972 3.903807 0.218449 -0.017885 0.161587 2.479662 -2.919313 6.693369 3.353316 10.459093 -10.969427 0.000000 0.000000 0.000000 2.342307 -1.721998 1.494453 -7.290576 -14.134825 -4.630334 0.852795 -71.079757 -33.369490 0.330433 -30.854700 3.976931 0.000000 0.000000 0.000000 -0.598537 -0.289118 0.836792 2.258603 24.088687 -13.242076 -14.817390 67.000467 -28.801569 -9.839120 47.735260 -2.500109 0.000000 0.000000 0.000000 
-24.016420 78.771858 6.978088 178.615908 3.318256 -178.263238 -6.254913 -3.905951 33.552662 -1.135752 1.043540 -71.757817 2.644299 -1.503258 52.424547 -7.900970 -0.235079 -6.877463 0.000000 0.000000 0.000000 2.244390 -10.922783 31.803140 -12.219572 -12.343994 -68.660504 0.225261 5.398162 56.909543 9.565757 2.620952 0.721844 0.000000 0.000000 0.000000 4.227768 -8.377703 57.892656 -6.785125 -0.229551 26.483025 0.830325 -2.374168 3.530498 0.238917 -0.046834 0.175945 2.490760 -2.721334 6.530118 3.744734 10.718701 -11.095950 0.000000 0.000000 0.000000 2.315836 -1.622812 1.424456 -7.663809 -14.422928 -4.802850 0.280962 -71.219762 -33.028544 -0.040839 -30.161364 4.054166 0.000000 0.000000 0.000000 -0.593045 -0.176089 0.684796 2.143328 23.626335 -14.084098 -16.401772 68.751701 -31.991926 -9.279640 45.440832 -2.296568 0.000000 0.000000 0.000000 
-24.374683 78.795807 6.890911 178.382206 1.684074 -178.166208 -6.468958 -4.623698 33.688911 -1.736902 1.224886 -71.720429 2.849948 -1.455631 51.893998 -8.887771 -0.304071 -6.349459 0.000000 0.000000 0.000000 2.077516 -11.750551 31.796938 -12.441472 -12.971485 -68.397473 0.472510 5.058749 57.021380 9.256594 2.184182 0.863469 0.000000 0.000000 0.000000 4.380742 -9.146381 58.126829 -6.838544 -0.194702 26.819117 0.620743 -2.337631 3.236895 0.227024 -0.138346 0.181821 2.487314 -2.369205 6.365200 3.960612 10.964170 -11.339246 0.000000 0.000000 0.000000 2.247460 -1.552765 1.367876 -8.208871 -14.582239 -4.940837 -0.941409 -71.039336 -32.458285 -0.208387 -29.904955 4.152173 0.000000 0.000000 0.000000 -0.547890 -0.064385 0.442291 1.602387 22.954439 -14.618949 -16.522796 70.027095 -33.871366 -9.019579 43.355319 -2.548912 0.000000 0.000000 0.000000 
-24.755121 78.874084 6.842977 178.153778 0.052008 -178.094519 -6.628291 -5.159060 33.818459 -2.622352 1.542708 -71.619082 3.024028 -1.303779 51.196062 -10.031195 -0.569941 -5.482910 0.000000 0.000000 0.000000 2.085274 -12.372060 31.813180 -12.699180 -13.515860 -68.048287 0.483348 5.039155 57.002959 9.069597 1.896448 1.040481 0.000000 0.000000 0.000000 4.494866 -9.782261 58.280351 -6.868775 -0.326939 27.245724 0.494068 -2.230477 3.017677 0.226779 -0.148834 0.185024 2.298421 -2.295567 6.293875 3.995250 11.093989 -11.623203 0.000000 0.000000 0.000000 2.102428 -1.423448 1.313753 -8.491755 -14.350687 -5.106389 -2.182184 -70.368167 -32.075094 -0.255780 -30.315877 4.360044 0.000000 0.000000 0.000000 -0.735821 0.069122 0.299867 0.523827 22.129690 -15.005702 -14.900678 70.776292 -34.077958 -8.630017 42.262513 -2.616835 0.000000 0.000000 0.000000 
-25.082302 78.988419 6.902341 177.993063 -1.291230 -178.073099 -6.736026 -5.430102 33.802490 -3.647447 2.035903 -71.436225 3.188541 -1.288990 50.509819 -11.081053 -1.058393 -4.375423 0.000000 0.000000 0.000000 2.170231 -12.715275 31.730214 -12.970431 -13.918011 -67.539137 0.448465 5.046514 56.745198 9.021386 1.650492 1.267034 0.000000 0.000000 0.000000 4.774302 -10.272705 58.402366 -7.038544 -0.465642 27.750369 0.512959 -2.227325 2.910521 0.274119 -0.219475 0.151595 2.115594 -1.929320 6.246855 3.743774 11.298762 -11.797988 0.000000 0.000000 0.000000 1.937700 -1.361409 1.125401 -8.406004 -13.871417 -5.214026 -3.317171 -69.394633 -31.890683 -0.123422 -30.919583 4.664792 0.000000 0.000000 0.000000 -0.917434 0.268457 0.122384 -0.999575 21.236935 -15.030055 -10.618824 70.752304 -31.839794 -8.553433 42.305290 -3.166061 0.000000 0.000000 0.000000 
-25.281954 79.102509 7.077177 177.947328 -2.347470 -178.072608 -6.762352 -5.500829 33.639515 -4.609302 2.575394 -71.295468 3.342590 -1.469946 49.982317 -11.731388 -1.655582 -3.173326 0.000000 0.000000 0.000000 2.232572 -12.831161 31.607814 -13.148026 -14.212113 -66.950955 0.405371 4.895501 56.235273 9.030051 1.362170 1.553883 0.000000 0.000000 0.000000 5.173396 -10.568657 58.467362 -7.152604 -0.716429 28.200232 0.367518 -2.116810 2.881674 0.261072 -0.177194 0.120879 2.127466 -2.152804 6.161026 3.916549 11.375292 -12.023836 0.000000 0.000000 0.000000 2.045588 -1.384566 0.989299 -7.778171 -13.280338 -5.409310 -3.969893 -68.758162 -32.195712 0.139973 -31.926544 5.155163 0.000000 0.000000 0.000000 -0.965335 0.110885 -0.041000 -1.953262 20.246052 -14.620327 -4.386706 70.222698 -28.283002 -9.297078 43.922816 -4.493483 0.000000 0.000000 0.000000 
-25.287443 79.181519 7.266618 178.051707 -2.927645 -178.096322 -6.818207 -5.214297 33.464515 -5.138713 3.061461 -71.305816 3.439569 -1.748478 49.696532 -12.078095 -2.189176 -2.059853 0.000000 0.000000 0.000000 2.219665 -12.625477 31.648447 -13.176038 -14.329083 -66.426151 0.387518 4.419330 55.534106 9.002339 0.991458 1.876924 0.000000 0.000000 0.000000 5.486516 -10.680361 58.607511 -7.336515 -0.950712 28.539766 0.379700 -2.077283 2.896980 0.184107 -0.168745 0.197653 2.149401 -2.176286 6.063701 3.815563 11.117075 -12.501365 0.000000 0.000000 0.000000 2.077650 -1.355112 0.894833 -7.184172 -12.500599 -5.659718 -4.404338 -68.425573 -32.561154 0.760684 -32.853818 5.496775 0.000000 0.000000 0.000000 -1.007619 0.126965 -0.140675 -3.034172 19.418964 -13.996966 2.308342 69.004315 -24.655280 -10.230959 46.565539 -6.051300 0.000000 0.000000 0.000000 
-25.180752 79.216637 7.473534 178.341717 -3.080547 -178.175894 -6.684689 -4.965353 33.499059 -5.092151 3.350929 -71.554093 3.455727 -1.700433 49.602828 -12.016482 -2.436135 -1.236400 0.000000 0.000000 0.000000 2.027113 -12.195441 31.957656 -13.093049 -14.231403 -66.111573 0.434654 3.527987 54.773865 8.949881 0.669404 2.137522 0.000000 0.000000 0.000000 5.750622 -10.657955 59.051664 -7.514026 -1.038707 28.693177 0.423750 -2.031592 2.785616 0.204518 -0.128689 0.200418 2.104395 -2.241752 5.854058 3.482844 10.773916 -12.991314 0.000000 0.000000 0.000000 2.071961 -1.299178 0.674436 -6.898254 -11.653966 -5.903165 -4.863137 -68.456445 -32.665103 1.433997 -33.275801 5.913532 0.000000 0.000000 0.000000 -1.077715 0.255969 -0.323282 -3.746766 18.990291 -13.188214 8.588883 67.439382 -21.760575 -11.370430 49.549153 -7.674153 0.000000 0.000000 0.000000 
-25.037590 79.208931 7.633923 178.706941 -2.879675 -178.302471 -6.349832 -4.887785 33.861547 -4.804213 3.325351 -72.030717 3.426694 -1.490229 49.632068 -11.634977 -2.365045 -0.739300 0.000000 0.000000 0.000000 1.662085 -11.747288 32.506786 -13.029481 -14.001779 -66.092148 0.513987 2.355146 54.093527 9.053172 0.532255 2.292658 0.000000 0.000000 0.000000 5.844269 -10.758115 59.760788 -7.572521 -1.037736 28.659586 0.430743 -1.970114 2.552660 0.207448 -0.061373 0.135603 2.028972 -2.203943 5.516468 3.106038 10.576947 -13.310366 0.000000 0.000000 0.000000 2.012351 -1.242213 0.293874 -6.501585 -10.756535 -5.799744 -5.159043 -68.920680 -32.716702 2.169693 -32.816641 6.389547 0.000000 0.000000 0.000000 -1.150772 0.296434 -0.524875 -3.856377 19.014398 -12.168540 14.285236 65.919283 -19.482958 -13.217743 52.246767 -9.748507 0.000000 0.000000 0.000000 
-24.938366 79.181671 7.748308 178.977252 -2.416999 -178.450003 -6.114693 -4.886868 34.543412 -4.379303 3.034753 -72.656738 3.403073 -1.301297 49.634811 -11.073711 -2.116776 -0.602738 0.000000 0.000000 0.000000 1.300181 -11.321575 33.176244 -13.049997 -13.653291 -66.331840 0.595575 1.236155 53.561896 9.185330 0.693242 2.210962 0.000000 0.000000 0.000000 5.923430 -11.022404 60.420441 -7.497295 -0.996622 28.512311 0.354346 -1.926828 2.370610 0.148845 -0.027550 0.186377 1.836503 -2.266463 5.195324 2.793045 9.869366 -13.975322 0.000000 0.000000 0.000000 1.857272 -1.153454 0.082602 -6.128519 -9.883543 -5.759339 -6.444854 -69.814847 -31.874225 2.913030 -32.286591 6.708754 0.000000 0.000000 0.000000 -1.322076 0.317877 -0.586502 -3.127178 19.252666 -11.016506 18.541208 64.592894 -18.122968 -15.201819 54.757572 -12.035793 0.000000 0.000000 0.000000 
